PathFileType	4	(X/Y/Z)	/Users/itak/Documents/Research/Walk-IL/dataset/trc/00429_00167.trc
DataRate	CameraRate	NumFrames	NumMarkers	Units	OrigDataRate	OrigDataStartFrame	OrigNumFrames
100.000000	100.000000	4	53	mm	100.000000	504	673
Frame#	Time	RPSI			LPSI			L3			STRN			T10			C7			CLAV			RBAK			LBAK			LSHO			LUPA			LAEL			LAOL			LWTS			LWPS			LFRA			LIFD			LHPS			LHTS			RSHO			RUPA			RAEL			RAOL			RWTS			RWPS			RFRA			RIFD			RHTS			RHPS			RBHD			LFHD			RFHD			LBHD			LHIP			RHIP			RASI			LASI			LKNE			LTHI			LANK			LTIP			LTOE			LMT1			LMT5			LHEE			RKNE			RTHI			RANK			RTIP			RTOE			RMT1			RMT5			RHEE			
		X1	Y1	Z1	X2	Y2	Z2	X3	Y3	Z3	X4	Y4	Z4	X5	Y5	Z5	X6	Y6	Z6	X7	Y7	Z7	X8	Y8	Z8	X9	Y9	Z9	X10	Y10	Z10	X11	Y11	Z11	X12	Y12	Z12	X13	Y13	Z13	X14	Y14	Z14	X15	Y15	Z15	X16	Y16	Z16	X17	Y17	Z17	X18	Y18	Z18	X19	Y19	Z19	X20	Y20	Z20	X21	Y21	Z21	X22	Y22	Z22	X23	Y23	Z23	X24	Y24	Z24	X25	Y25	Z25	X26	Y26	Z26	X27	Y27	Z27	X28	Y28	Z28	X29	Y29	Z29	X30	Y30	Z30	X31	Y31	Z31	X32	Y32	Z32	X33	Y33	Z33	X34	Y34	Z34	X35	Y35	Z35	X36	Y36	Z36	X37	Y37	Z37	X38	Y38	Z38	X39	Y39	Z39	X40	Y40	Z40	X41	Y41	Z41	X42	Y42	Z42	X43	Y43	Z43	X44	Y44	Z44	X45	Y45	Z45	X46	Y46	Z46	X47	Y47	Z47	X48	Y48	Z48	X49	Y49	Z49	X50	Y50	Z50	X51	Y51	Z51	X52	Y52	Z52	X53	Y53	Z53	

505	5.04	729.8843994140625	915.6079711914062	797.9357299804688	826.5860595703125	897.7026977539062	694.7393188476562	763.560546875	1003.1748046875	768.297607421875	977.1917724609375	1193.637084960938	932.8562622070312	749.0792846679688	1127.948852539062	757.3356323242188	794.365234375	1396.086547851562	812.0810546875	950.4708251953125	1307.538330078125	907.38330078125	685.8953247070312	1277.0498046875	847.7183837890625	826.4458618164062	1348.961303710938	712.9405517578125	957.8165893554688	1364.946411132812	707.3353881835938	989.57275390625	1250.042846679688	608.3909301757812	986.0298461914062	1037.30126953125	565.1301879882812	886.0010375976562	1036.363525390625	593.4412841796875	991.1638793945312	814.434814453125	594.0880737304688	972.4268798828125	820.0914916992188	522.3589477539062	989.0440673828125	948.8623046875	547.2722778320312	944.3603515625	655.113525390625	555.0736694335938	953.0360717773438	741.4212646484375	509.1284790039062	980.5824584960938	724.539794921875	572.1762084960938	754.7453002929688	1362.2919921875	982.8042602539062	690.3800048828125	1303.987548828125	1031.048828125	622.3414306640625	1022.724365234375	1061.295776367188	605.1401977539062	1015.552856445312	996.1417236328125	684.3151245117188	801.3488159179688	1070.892578125	597.2900390625	804.9452514648438	1074.09619140625	607.744384765625	965.6508178710938	1065.805786132812	644.630859375	647.5185546875	1060.970336914062	665.3718872070312	701.4871826171875	1078.278442382812	591.6121215820312	715.8263549804688	1072.382934570312	819.5430297851562	1591.605346679688	928.1404418945312	1017.869812011719	1600.619018554688	870.15673828125	947.1317749023438	1606.41748046875	979.3571166992188	902.2080078125	1589.169921875	770.8947143554688	1017.320190429688	806.2559814453125	714.2415771484375	707.0100708007812	814.8635864257812	978.2669677734375	828.732666015625	844.533447265625	1007.992004394531	1016.273620605469	851.1771240234375	837.1171875	1142.0400390625	430.453857421875	860.79541015625	1114.507446289062	575.428466796875	816.792236328125	1223.237060546875	23.45493125915527	904.7613525390625	1191.249145507812	283.612548828125	884.1758422851562	1315.131103515625	102.6971206665039	1100.629516601562	1248.678100585938	74.88895416259766	1072.602905273438	1324.806518554688	74.04156494140625	993.4083862304688	1151.134521484375	15.01118278503418	899.8175659179688	686.2162475585938	428.349609375	896.841796875	712.48046875	676.2999267578125	980.9655151367188	537.9515991210938	55.21369552612305	753.8941650390625	637.9042358398438	289.98486328125	861.641357421875	746.2410888671875	38.54280471801758	821.87353515625	708.235595703125	46.45600128173828	759.63623046875	635.8064575195312	43.81609344482422	841.3511352539062	504.4340209960938	62.36007690429688	679.010498046875	
506	5.05	738.3927001953125	915.388916015625	800.4739990234375	835.6864624023438	897.3147583007812	697.7899169921875	772.759765625	1002.283325195312	771.3753051757812	985.3223876953125	1193.046020507812	936.5294799804688	758.1181640625	1127.055419921875	760.0221557617188	802.6752319335938	1395.329345703125	814.6345825195312	958.6871948242188	1306.86767578125	910.8357543945312	694.3877563476562	1276.233520507812	849.61669921875	835.1964111328125	1348.1494140625	715.665283203125	966.5751953125	1364.259033203125	710.5821533203125	998.55859375	1249.052490234375	612.0023193359375	995.4848022460938	1036.201171875	569.2623901367188	895.3985595703125	1035.2490234375	597.20849609375	1000.650085449219	813.4049682617188	598.9761962890625	982.2828979492188	818.8599853515625	527.1490478515625	998.7113037109375	947.6876220703125	551.7282104492188	954.0695190429688	653.9889526367188	560.0669555664062	962.9873657226562	740.1810302734375	514.0060424804688	990.2014770507812	723.4423828125	577.2449951171875	762.3480834960938	1361.643676757812	985.1248779296875	697.8240966796875	1303.292846679688	1033.103393554688	629.6874389648438	1022.399291992188	1064.285278320312	612.8533935546875	1014.84619140625	999.0805053710938	691.6891479492188	801.1888427734375	1075.565307617188	604.6271362304688	804.7503051757812	1078.119384765625	615.0934448242188	965.3527221679688	1069.029663085938	651.96435546875	647.318359375	1066.477661132812	672.5885620117188	701.3033447265625	1083.53125	598.9766845703125	715.7615356445312	1077.163330078125	827.3192138671875	1591.240478515625	930.6715087890625	1025.808471679688	1600.232055664062	873.192626953125	954.7755126953125	1606.163208007812	982.2384643554688	910.3898315429688	1588.616088867188	773.6897583007812	1025.903564453125	805.0883178710938	718.25537109375	714.0606689453125	814.59375	980.74072265625	835.80810546875	843.6798095703125	1011.131713867188	1024.330200195312	849.7725830078125	841.1986083984375	1147.695190429688	428.4126586914062	864.4745483398438	1121.234619140625	573.2564697265625	820.517333984375	1224.654418945312	22.46196556091309	905.88330078125	1195.887084960938	281.2699890136719	888.0335083007812	1319.127197265625	93.45172882080078	1104.0078125	1251.776489257812	68.54660034179688	1075.197509765625	1327.598876953125	67.61607360839844	995.6828002929688	1152.315551757812	16.38180541992188	901.010009765625	690.4290161132812	428.7293090820312	899.0508422851562	717.1444091796875	676.5775146484375	982.5858764648438	538.216552734375	57.12586212158203	754.7910766601562	640.6476440429688	291.0299377441406	863.4163818359375	746.29736328125	38.49322509765625	821.9327392578125	708.3253173828125	46.65530395507812	760.0748291015625	636.01318359375	43.77304458618164	841.7086791992188	504.7372436523438	65.59341430664062	680.0155029296875	
507	5.06	746.8365478515625	915.31005859375	803.0874633789062	844.6602172851562	897.2923583984375	700.8251342773438	782.0028076171875	1001.703979492188	774.57421875	993.5611572265625	1192.702026367188	940.2049560546875	767.1146850585938	1126.438354492188	762.7731323242188	811.0833129882812	1394.834228515625	817.2263793945312	966.98828125	1306.439208984375	914.3084106445312	703.0060424804688	1275.715942382812	851.5127563476562	844.059814453125	1347.614379882812	718.4102783203125	975.4426879882812	1363.800659179688	713.8673706054688	1007.80224609375	1248.23046875	615.7479858398438	1005.374938964844	1035.2431640625	573.6224365234375	905.1802368164062	1034.23388671875	601.0757446289062	1010.615905761719	812.523193359375	604.1961669921875	992.7044677734375	817.73828125	532.24658203125	1008.8564453125	946.6552734375	556.4576416015625	964.2180786132812	653.0009765625	565.4378662109375	973.47607421875	739.0419921875	519.217041015625	1000.269897460938	722.4658813476562	582.6783447265625	770.0813598632812	1361.223754882812	987.52978515625	705.4366455078125	1302.791137695312	1035.245483398438	637.2607421875	1022.236511230469	1067.32177734375	620.8026123046875	1014.299499511719	1002.069519042969	699.4063720703125	801.2489013671875	1080.346435546875	612.3296508789062	804.7282104492188	1082.225830078125	622.7160034179688	965.2067260742188	1072.323974609375	659.7574462890625	647.3136596679688	1072.154174804688	680.2261352539062	701.3565063476562	1088.9560546875	606.7759399414062	715.8800659179688	1082.076171875	835.21484375	1591.15380859375	933.252685546875	1033.825805664062	1600.113403320312	876.248291015625	962.5135498046875	1606.166259765625	985.1307373046875	918.650634765625	1588.33251953125	776.5150756835938	1034.466918945312	804.4442138671875	722.165283203125	721.1991577148438	814.4028930664062	983.24462890625	842.9989013671875	842.9887084960938	1014.235656738281	1032.389770507812	848.8010864257812	845.1851806640625	1153.53173828125	426.9268798828125	868.1303100585938	1128.092407226562	571.592041015625	824.1641845703125	1225.93408203125	21.8989429473877	906.8758544921875	1200.704711914062	279.540283203125	891.78955078125	1323.146362304688	83.80763244628906	1107.194702148438	1254.843505859375	62.2449951171875	1077.592407226562	1330.397583007812	61.19666290283203	997.7222290039062	1153.4482421875	18.15534782409668	902.1292724609375	694.9195556640625	429.2290954589844	901.3455810546875	722.0921630859375	676.9717407226562	984.3004760742188	538.5714721679688	59.29165267944336	755.768798828125	643.6310424804688	292.2457580566406	865.2705688476562	746.382568359375	38.44462203979492	822.0018310546875	708.4423217773438	46.86090469360352	760.5146484375	636.297119140625	43.74211502075195	842.069091796875	505.153076171875	69.160400390625	681.1389770507812	
508	5.07	755.166748046875	915.4155883789062	805.8085327148438	853.42138671875	897.7011108398438	703.8546142578125	791.2051391601562	1001.509948730469	777.87890625	1001.885681152344	1192.632934570312	943.8674926757812	776.001953125	1126.162719726562	765.5942993164062	819.5819091796875	1394.642822265625	819.8668823242188	975.3519897460938	1306.286499023438	917.7924194335938	711.7219848632812	1275.55126953125	853.4451904296875	853.0255126953125	1347.401123046875	721.1787719726562	984.40771484375	1363.60107421875	717.198974609375	1017.299438476562	1247.614501953125	619.6396484375	1015.690246582031	1034.472900390625	578.2168579101562	915.3300170898438	1033.36181640625	605.024658203125	1021.054748535156	811.841064453125	609.7501220703125	1003.685729980469	816.7718505859375	537.6578369140625	1019.463195800781	945.811767578125	561.4614868164062	974.8495483398438	652.194580078125	571.2008666992188	984.5198364257812	738.0473022460938	524.7714233398438	1010.809753417969	721.6656494140625	588.4855346679688	777.954345703125	1361.066772460938	990.0406494140625	713.2178955078125	1302.525390625	1037.499755859375	645.0569458007812	1022.27197265625	1070.393432617188	628.9818115234375	1013.948364257812	1005.095153808594	707.462646484375	801.5711059570312	1085.2197265625	620.3914794921875	804.9175415039062	1086.390502929688	630.6017456054688	965.2461547851562	1075.666625976562	668.0146484375	647.5372924804688	1077.998657226562	688.287109375	701.6935424804688	1094.53857421875	614.9962158203125	716.197509765625	1087.075317382812	843.2243041992188	1591.361694335938	935.8922119140625	1041.918212890625	1600.280883789062	879.3224487304688	970.3446655273438	1606.446166992188	988.0337524414062	926.9855346679688	1588.336547851562	779.3676147460938	1042.914794921875	804.3897094726562	725.9442138671875	728.4138793945312	814.3182983398438	985.7792358398438	850.3033447265625	842.5004272460938	1017.286499023438	1040.406494140625	848.3475341796875	849.0401611328125	1159.562622070312	426.0251159667969	871.7627563476562	1135.102783203125	570.548095703125	827.7683715820312	1227.087280273438	21.62403869628906	907.740966796875	1205.65625	278.3781127929688	895.3724365234375	1326.94091796875	74.23397827148438	1110.058837890625	1257.710693359375	56.25900268554688	1079.702392578125	1333.099609375	55.05558776855469	999.4839477539062	1154.551391601562	20.08461952209473	903.1473388671875	699.7067260742188	429.8538818359375	903.7527465820312	727.341064453125	677.487548828125	986.13525390625	539.0465698242188	61.72388458251953	756.8294677734375	646.8600463867188	293.642333984375	867.2383422851562	746.5003662109375	38.39827346801758	822.085693359375	708.5970458984375	47.08368682861328	760.95849609375	636.6575927734375	43.72373580932617	842.4366455078125	505.7126159667969	73.08529663085938	682.3895263671875	
